<svg xmlns="http://www.w3.org/2000/svg" viewBox="0 0 512 512"><defs><linearGradient id="goldGrad" x1="0" y1="0" x2="0" y2="1"><stop offset="0%" stop-color="#e8c97a"/><stop offset="40%" stop-color="#c9a961"/><stop offset="100%" stop-color="#8a7340"/></linearGradient><linearGradient id="silverGrad" x1="0" y1="0" x2="0" y2="1"><stop offset="0%" stop-color="#f0eee5"/><stop offset="40%" stop-color="#cdc9be"/><stop offset="100%" stop-color="#8d8a80"/></linearGradient><clipPath id="leftHalf"><rect x="0" y="0" width="256" height="512"/></clipPath><clipPath id="rightHalf"><rect x="256" y="0" width="256" height="512"/></clipPath></defs><rect width="512" height="512" rx="100" fill="#060d0a"/><g clip-path="url(#leftHalf)"><circle cx="256" cy="256" r="210" fill="none" stroke="url(#goldGrad)" stroke-width="6"/></g><g clip-path="url(#rightHalf)"><circle cx="256" cy="256" r="210" fill="none" stroke="url(#silverGrad)" stroke-width="6"/></g><line x1="256" y1="46" x2="256" y2="466" stroke="#060d0a" stroke-width="8"/><g clip-path="url(#leftHalf)" fill="url(#goldGrad)"><path d="M 215 100 C 205 100 196 108 192 118 L 145 140 C 138 143 134 150 136 158 L 138 165 L 224 165 C 232 165 240 158 240 150 L 240 130 C 240 113 229 100 215 100 Z"/><path d="M 225 165 C 230 175 235 188 232 200 L 222 215 L 246 215 L 254 200 L 254 168 Z"/><path d="M 222 215 L 250 215 L 254 240 L 196 240 L 196 230 Z"/></g><g clip-path="url(#rightHalf)" fill="url(#silverGrad)"><path d="M 297 100 C 307 100 316 108 320 118 L 367 140 C 374 143 378 150 376 158 L 374 165 L 288 165 C 280 165 272 158 272 150 L 272 130 C 272 113 283 100 297 100 Z"/><path d="M 287 165 C 282 175 277 188 280 200 L 290 215 L 266 215 L 258 200 L 258 168 Z"/><path d="M 290 215 L 262 215 L 258 240 L 316 240 L 316 230 Z"/></g><g font-family="Impact, 'Helvetica Inserat', 'Arial Black', sans-serif" font-weight="900" font-size="172" letter-spacing="2"><text x="118" y="356" fill="url(#goldGrad)">F</text><g clip-path="url(#leftHalf)"><text x="212" y="356" fill="url(#goldGrad)">G</text></g><g clip-path="url(#rightHalf)"><text x="212" y="356" fill="url(#silverGrad)">G</text></g><text x="318" y="356" fill="url(#silverGrad)">L</text></g><g transform="translate(256,415)"><line x1="0" y1="0" x2="0" y2="-46" stroke="url(#goldGrad)" stroke-width="4"/><path d="M 0 -46 L 24 -39 L 0 -32 Z" fill="url(#goldGrad)"/><ellipse cx="0" cy="2" rx="7" ry="2.5" fill="#060d0a"/></g><path d="M 90 420 Q 256 405 422 420" fill="none" stroke="url(#goldGrad)" stroke-width="2.5" opacity="0.4"/></svg>
